<?xml version="1.0" encoding="UTF-8"?>
<svg xmlns="http://www.w3.org/2000/svg" xmlns:xlink="http://www.w3.org/1999/xlink" width="2670" height="2971" viewBox="0 0 2670 2971">
<path fill-rule="nonzero" fill="rgb(71.289062%, 5.099487%, 5.099487%)" fill-opacity="1" d="M 509.585938 2468.585938 C 529.613281 2440.359375 573.441406 2387.578125 605.804688 2371.757812 C 619.578125 2365.019531 617.605469 2359.039062 617.597656 2344.59375 C 617.558594 2279.355469 619.046875 2217.042969 646.015625 2156.191406 C 676.210938 2088.058594 679.808594 2119.273438 690.589844 2162.714844 L 712.304688 2253.246094 C 714.382812 2262.175781 715.519531 2276.167969 719.910156 2283.875 C 768.964844 2248.121094 826.378906 2215.558594 882.273438 2192.679688 L 873.496094 2142.210938 C 867.875 2088.820312 876.449219 2035.769531 911.429688 1993.390625 C 949.597656 1947.160156 949.003906 2008.167969 952.683594 2035.90625 C 958.625 2080.777344 976.691406 2119.789062 998.628906 2159.085938 C 1037 2149.5 1073.539062 2132.835938 1112.601562 2126.140625 C 1132.039062 2052.148438 1155.648438 1992.902344 1218.539062 1945.28125 C 1280.960938 1898.019531 1252.261719 1971.949219 1242.191406 2004.984375 C 1231.859375 2038.929688 1228.78125 2071.566406 1227.839844 2106.96875 C 1242.308594 2102.25 1258.429688 2100.804688 1273.429688 2097.886719 L 1431.738281 2071.628906 C 1474.519531 2064.867188 1453.328125 2069.753906 1459.320312 2019.175781 C 1462.070312 1995.898438 1497.289062 1847.128906 1526.859375 1847.480469 C 1551.191406 1881.988281 1559.019531 1996.027344 1562.558594 2037.386719 C 1837.480469 1914.550781 2092.449219 1609.109375 2050.109375 1291.410156 C 1996.558594 889.511719 1530.070312 670.121094 1203.859375 913.101562 C 1176.179688 933.730469 1151.71875 958.390625 1126.210938 981.558594 L 1142.738281 1050.558594 C 1149.050781 1087.980469 1149.179688 1132.910156 1133.058594 1168.058594 C 1116.640625 1203.839844 1072.410156 1202.039062 1051.328125 1233.648438 C 1029.648438 1266.148438 1019.058594 1309.808594 1003.578125 1345.808594 C 984.273438 1390.691406 958.117188 1431.191406 931.835938 1472.128906 C 922.402344 1486.820312 910.820312 1502.890625 904.867188 1519.320312 C 903.945312 1490.429688 903.382812 1461.738281 905.511719 1432.871094 L 915.710938 1328.730469 C 917.523438 1298.949219 919.824219 1266.871094 898.316406 1243.21875 C 854.984375 1195.578125 794.335938 1225.519531 755 1263.441406 C 745.796875 1272.308594 745.175781 1285.910156 742.621094 1297.890625 L 734.152344 1334.808594 C 728.65625 1356.609375 721.773438 1377.96875 713.738281 1398.960938 L 681.054688 1482.148438 C 675.636719 1497.519531 669.921875 1511.710938 669.789062 1528.25 L 669.78125 1531.011719 C 658.046875 1511.578125 650.277344 1489.058594 642.992188 1467.628906 L 620.394531 1393.539062 C 606.160156 1337.761719 572.796875 1203.078125 641.808594 1174.429688 C 668.386719 1163.390625 692.886719 1164.398438 713.679688 1140.769531 C 731.832031 1120.148438 731.234375 1090.988281 745.117188 1068 C 783.335938 1004.648438 847.214844 1008.871094 909.921875 993.320312 C 930.605469 898.550781 879.636719 786.851562 793.480469 742.371094 C 687.78125 687.789062 512.796875 737.921875 412.839844 782.371094 C 299.222656 832.898438 230.003906 854.871094 117.144531 795.941406 L 97.855469 841.210938 C 78.769531 880.449219 49.914062 794.210938 45.644531 785.519531 C 15.332031 723.761719 -26.765625 681.808594 26.230469 615.929688 C 56.820312 577.898438 113.636719 517.660156 167.351562 528.949219 C 187.078125 533.101562 204.65625 545.589844 221.382812 556.148438 C 246.992188 572.328125 245.90625 575.761719 269.34375 555.570312 C 305.953125 524.039062 410.628906 409.191406 457 404.839844 L 458.5625 404.730469 C 533.28125 225.589844 661.601562 114.910156 836.359375 34.53125 C 866.347656 20.75 897.847656 7.621094 930.378906 1.359375 C 1026.820312 -10.941406 844.972656 107.769531 890.832031 176.199219 C 917.699219 216.28125 952.785156 183.058594 982.433594 166.941406 L 1024.828125 145.671875 C 1156.109375 80.929688 1258.71875 32.660156 1406.691406 8.871094 C 1429.519531 5.199219 1473.058594 -9.25 1488.140625 16.28125 C 1502.910156 41.289062 1450.800781 72.769531 1435.710938 84.941406 C 1402.96875 111.328125 1342.839844 163.429688 1330.75 206.039062 C 1346.160156 235.339844 1362.921875 228.160156 1389.339844 221.03125 L 1440.488281 206.878906 C 1502.941406 189.890625 1661.148438 150.488281 1712.390625 211.128906 C 1737.851562 241.269531 1686.921875 251.890625 1668.378906 255.460938 C 1547.019531 278.828125 1519.808594 310.53125 1419.910156 372.261719 L 1288.140625 454.339844 C 1266.628906 467.691406 1243.738281 478.78125 1223.621094 494.269531 C 1254.191406 516.03125 1295.921875 518.828125 1331.410156 528.921875 L 1453.160156 566.398438 L 1422.308594 403.410156 L 1556.289062 421.019531 C 1626.070312 431.910156 1697.488281 442.980469 1763.558594 469 L 1786.878906 478.308594 C 1796.179688 482.058594 1796.28125 479.109375 1805.03125 474.089844 L 1847.128906 450.898438 C 1943.019531 403.308594 2036.210938 372.128906 2139.589844 415.328125 C 2224.519531 450.808594 2135.179688 459.871094 2104.71875 463.921875 C 2041.890625 472.25 1990.410156 492.589844 1933.808594 520.570312 C 2010.109375 546.230469 2122.929688 626.308594 2183.550781 685.058594 C 2195.128906 681.898438 2207.640625 673.179688 2218.671875 667.910156 C 2304.25 626.949219 2356.480469 620.640625 2444.148438 646.859375 C 2463.640625 652.679688 2482 657.75 2499.808594 667.960938 C 2464.628906 706.789062 2448.078125 701.558594 2398.101562 711.859375 C 2348.488281 722.089844 2299.25 742.25 2257.078125 770.359375 C 2301.78125 823.289062 2338.601562 887.839844 2367.851562 950.371094 L 2395.980469 1018.648438 C 2416.050781 1073.519531 2418.71875 1088.910156 2464.558594 1128.179688 C 2499.53125 1158.140625 2538.988281 1180.089844 2582.53125 1195.109375 C 2604.75 1202.769531 2633.230469 1204.269531 2651.828125 1219.238281 C 2689.019531 1249.171875 2663.609375 1296.808594 2616.398438 1297.789062 C 2583.320312 1298.488281 2492.929688 1266.070312 2467.199219 1240.121094 L 2466.21875 1239.078125 C 2476.109375 1386.710938 2453.410156 1465.378906 2413.191406 1600.078125 C 2399.230469 1646.820312 2427.378906 1758.648438 2445.570312 1799.871094 C 2455.71875 1822.898438 2470.320312 1842.371094 2481.640625 1864.511719 C 2500.871094 1902.109375 2445.910156 1948.660156 2391.320312 1896.78125 C 2365.980469 1872.699219 2347.839844 1840.460938 2333.28125 1809.019531 C 2324.28125 1834.191406 2310.890625 1858.660156 2297.730469 1881.898438 C 2110.53125 2212.570312 1751.480469 2446.394531 1368.78125 2456.257812 L 1088.011719 2456.636719 C 1042.488281 2456.648438 994.9375 2453.707031 949.820312 2459.976562 C 786.859375 2482.625 627.449219 2624.65625 641.875 2799.644531 C 643.742188 2822.328125 649.644531 2843.902344 653.128906 2866.277344 C 664.683594 2940.339844 573.746094 2983.800781 510.3125 2966.832031 L 507.757812 2966.097656 C 446.453125 2948.917969 425.851562 2877.289062 417.039062 2821.6875 C 397.128906 2696.117188 435.964844 2570.378906 509.585938 2468.585938 Z M 792.839844 300.128906 C 738.941406 311.910156 648.125 351.25 631.867188 410.320312 C 640.914062 439.480469 659.714844 459.851562 688.519531 469.179688 C 754.425781 483.609375 875.394531 380.921875 836.292969 323.019531 C 829.46875 312.921875 816.285156 301.539062 803.65625 300.140625 Z M 1157.550781 590.261719 C 1115.980469 594.640625 1078.199219 606.210938 1038.511719 618.21875 L 1039.460938 619.25 C 1058.058594 640.320312 1090.058594 729.109375 1096.589844 755.511719 L 1150.261719 708.828125 C 1194.78125 674.269531 1260.78125 621.53125 1315.339844 603.71875 C 1265.660156 593.539062 1208.601562 584.730469 1157.550781 590.261719 Z M 1157.550781 590.261719 "/>
<path fill-rule="nonzero" fill="rgb(71.289062%, 5.099487%, 5.099487%)" fill-opacity="1" d="M 110.570312 1145.960938 L 87.332031 1099.828125 C 58.839844 1027.160156 77.5625 994.148438 106.871094 926.640625 C 119.429688 979.109375 144.78125 1032.628906 183.046875 1071.078125 C 203.625 1050.941406 215.683594 1018.339844 230.878906 993.75 C 254.941406 954.808594 287.066406 914.011719 327.03125 890.589844 C 350.160156 877.03125 427.128906 837.53125 449.585938 832.269531 C 459.617188 846.828125 496.5625 939.070312 507.617188 874.679688 C 512.210938 847.910156 508.296875 804.941406 537.300781 791.328125 C 555.289062 785.238281 573.6875 829.03125 579.980469 841.101562 L 630.449219 950.171875 L 453.007812 1044.359375 C 432.53125 1026.75 420.601562 975.78125 411.355469 950.308594 C 338.230469 977 314.363281 1025.789062 271.355469 1086.511719 L 217.335938 1155.828125 C 201.882812 1174.351562 187.035156 1192.980469 166.390625 1205.960938 C 141.4375 1195.898438 124.625 1167.609375 110.570312 1145.960938 Z M 110.570312 1145.960938 "/>
</svg>
